<svg width="41" height="35" viewBox="0 0 41 35" fill="none" xmlns="http://www.w3.org/2000/svg">
<mask id="mask0_1252_11360" style="mask-type:luminance" maskUnits="userSpaceOnUse" x="1" y="3" width="38" height="32">
<path d="M1.8147 34.3376V3.56836H38.7378V34.3376H1.8147Z" fill="white"/>
</mask>
<g mask="url(#mask0_1252_11360)">
<path d="M35.8741 11.0939C36.2593 11.4443 36.4885 11.9327 36.4885 12.4558C36.4885 12.9788 36.2596 13.4671 35.8744 13.8175L21.7716 26.638C21.3882 26.9864 20.8798 27.1734 20.3606 27.1734C19.8414 27.1734 19.3331 26.9865 18.9497 26.6381L4.84707 13.8175L4.83922 13.8103C4.46427 13.4573 4.24488 12.9717 4.24984 12.4545C4.25476 11.9374 4.48328 11.4559 4.86424 11.1096C5.24331 10.765 5.74479 10.5782 6.25827 10.5741C6.77175 10.5701 7.27618 10.7489 7.66113 11.0869L7.66907 11.094L20.3606 22.6318L33.0522 11.094C33.4356 10.7456 33.9439 10.5586 34.4633 10.5586C34.9824 10.5586 35.4907 10.7455 35.8741 11.0939Z" fill="#0B0C0D" stroke="#0B0C0D" stroke-width="1.23077"/>
</g>
</svg>
