<svg width="18" height="19" viewBox="0 0 18 19" fill="none" xmlns="http://www.w3.org/2000/svg">
<path d="M11 16.6582H16V2.6582H2V16.6582H9V11.6582H7V9.6582H9V8.0042C9 6.6672 9.14 6.1822 9.4 5.6932C9.6561 5.20939 10.052 4.81389 10.536 4.5582C10.918 4.3532 11.393 4.2302 12.223 4.1772C12.552 4.1562 12.978 4.1822 13.501 4.2572V6.1572H13C12.083 6.1572 11.704 6.2002 11.478 6.3212C11.3431 6.39056 11.2334 6.50035 11.164 6.6352C11.044 6.8612 11 7.0852 11 8.0032V9.6582H13.5L13 11.6582H11V16.6582ZM1 0.658203H17C17.2652 0.658203 17.5196 0.763563 17.7071 0.951103C17.8946 1.13863 18 1.39299 18 1.6582V17.6582C18 17.9234 17.8946 18.1778 17.7071 18.3653C17.5196 18.5528 17.2652 18.6582 17 18.6582H1C0.73478 18.6582 0.48043 18.5528 0.29289 18.3653C0.10536 18.1778 0 17.9234 0 17.6582V1.6582C0 1.39299 0.10536 1.13863 0.29289 0.951103C0.48043 0.763563 0.73478 0.658203 1 0.658203Z" fill="black"/>
</svg>
