<svg width="20" height="21" viewBox="0 0 20 21" fill="none" xmlns="http://www.w3.org/2000/svg">
<path d="M10 7.6582C9.2044 7.6582 8.4413 7.97427 7.87868 8.5369C7.31607 9.0995 7 9.8626 7 10.6582C7 11.4539 7.31607 12.2169 7.87868 12.7795C8.4413 13.3421 9.2044 13.6582 10 13.6582C10.7956 13.6582 11.5587 13.3421 12.1213 12.7795C12.6839 12.2169 13 11.4539 13 10.6582C13 9.8626 12.6839 9.0995 12.1213 8.5369C11.5587 7.97427 10.7956 7.6582 10 7.6582ZM10 5.6582C11.3261 5.6582 12.5979 6.18499 13.5355 7.12267C14.4732 8.0604 15 9.3321 15 10.6582C15 11.9843 14.4732 13.2561 13.5355 14.1937C12.5979 15.1314 11.3261 15.6582 10 15.6582C8.6739 15.6582 7.40215 15.1314 6.46447 14.1937C5.52678 13.2561 5 11.9843 5 10.6582C5 9.3321 5.52678 8.0604 6.46447 7.12267C7.40215 6.18499 8.6739 5.6582 10 5.6582ZM16.5 5.4082C16.5 5.73972 16.3683 6.05767 16.1339 6.29209C15.8995 6.52651 15.5815 6.6582 15.25 6.6582C14.9185 6.6582 14.6005 6.52651 14.3661 6.29209C14.1317 6.05767 14 5.73972 14 5.4082C14 5.07668 14.1317 4.75874 14.3661 4.52432C14.6005 4.2899 14.9185 4.1582 15.25 4.1582C15.5815 4.1582 15.8995 4.2899 16.1339 4.52432C16.3683 4.75874 16.5 5.07668 16.5 5.4082ZM10 2.6582C7.526 2.6582 7.122 2.6652 5.971 2.7162C5.187 2.7532 4.661 2.8582 4.173 3.0482C3.739 3.2162 3.426 3.4172 3.093 3.7512C2.78001 4.0536 2.53935 4.42279 2.389 4.8312C2.199 5.3212 2.094 5.8462 2.058 6.6292C2.006 7.7332 2 8.1192 2 10.6582C2 13.1322 2.007 13.5362 2.058 14.6872C2.095 15.4702 2.2 15.9972 2.389 16.4842C2.559 16.9192 2.759 17.2322 3.091 17.5642C3.428 17.9002 3.741 18.1012 4.171 18.2672C4.665 18.4582 5.191 18.5642 5.971 18.6002C7.075 18.6522 7.461 18.6582 10 18.6582C12.474 18.6582 12.878 18.6512 14.029 18.6002C14.811 18.5632 15.338 18.4582 15.826 18.2692C16.259 18.1002 16.574 17.8992 16.906 17.5672C17.243 17.2302 17.444 16.9172 17.61 16.4872C17.8 15.9942 17.906 15.4672 17.942 14.6872C17.994 13.5832 18 13.1972 18 10.6582C18 8.1842 17.993 7.7802 17.942 6.6292C17.905 5.8472 17.8 5.3192 17.61 4.8312C17.4593 4.4232 17.2191 4.05416 16.907 3.7512C16.6047 3.43805 16.2355 3.19737 15.827 3.0472C15.337 2.8572 14.811 2.7522 14.029 2.7162C12.925 2.6642 12.539 2.6582 10 2.6582ZM10 0.658203C12.717 0.658203 13.056 0.668203 14.122 0.718203C15.187 0.768203 15.912 0.935203 16.55 1.1832C17.21 1.4372 17.766 1.7812 18.322 2.3362C18.8305 2.8361 19.224 3.44079 19.475 4.1082C19.722 4.7452 19.89 5.4712 19.94 6.5362C19.987 7.6022 20 7.9412 20 10.6582C20 13.3752 19.99 13.7142 19.94 14.7802C19.89 15.8452 19.722 16.5702 19.475 17.2082C19.2247 17.876 18.8311 18.4808 18.322 18.9802C17.822 19.4885 17.2173 19.882 16.55 20.1332C15.913 20.3802 15.187 20.5482 14.122 20.5982C13.056 20.6452 12.717 20.6582 10 20.6582C7.283 20.6582 6.944 20.6482 5.878 20.5982C4.813 20.5482 4.088 20.3802 3.45 20.1332C2.78233 19.8827 2.17753 19.4891 1.678 18.9802C1.16941 18.4804 0.77593 17.8757 0.525 17.2082C0.277 16.5712 0.11 15.8452 0.0599999 14.7802C0.0129999 13.7142 0 13.3752 0 10.6582C0 7.9412 0.00999994 7.6022 0.0599999 6.5362C0.11 5.4702 0.277 4.7462 0.525 4.1082C0.77524 3.44038 1.1688 2.83552 1.678 2.3362C2.17767 1.82743 2.78243 1.43393 3.45 1.1832C4.088 0.935203 4.812 0.768203 5.878 0.718203C6.944 0.671203 7.283 0.658203 10 0.658203Z" fill="black"/>
</svg>
