<svg width="21" height="21" viewBox="0 0 21 21" fill="none" xmlns="http://www.w3.org/2000/svg">
<path d="M1.06342 7.43992H5.22152V20.7931H1.06342V7.43992ZM3.13941 0.793947C4.46598 0.793947 5.5442 1.87217 5.5442 3.19874C5.5442 4.52531 4.46598 5.60615 3.14028 5.60615C2.50214 5.60477 1.89052 5.35071 1.43921 4.89956C0.987888 4.44841 0.733612 3.83688 0.731995 3.19874C0.731994 2.88272 0.794283 2.56979 0.915299 2.27786C1.03632 1.98592 1.21369 1.72071 1.43727 1.49737C1.66085 1.27403 1.92626 1.09695 2.21833 0.976247C2.5104 0.85555 2.82339 0.793602 3.13941 0.793947ZM7.81782 7.43992H11.7984V9.26493H11.8535C12.4079 8.21557 13.7616 7.10849 15.7886 7.10849C19.9913 7.10849 20.767 9.87444 20.767 13.4694V20.7939H16.6194V14.2984C16.6194 12.7506 16.5914 10.7568 14.4629 10.7568C12.303 10.7568 11.9707 12.4445 11.9707 14.1847V20.7904H7.82394V7.43729L7.81782 7.43992Z" fill="black"/>
</svg>
