<svg width="24" height="21" viewBox="0 0 24 21" fill="none" xmlns="http://www.w3.org/2000/svg">
<path d="M2.88733 4.71385C2.88733 4.41535 2.74797 4.04221 2.53893 3.89296L0.378876 1.05714V0.609375H7.20744L12.4334 12.9974L17.1019 0.609375H23.5821V1.05714L21.7007 2.99743C21.5614 3.07206 21.4917 3.29594 21.4917 3.51982V17.6989C21.4917 17.9228 21.5614 18.1467 21.7007 18.2959L23.5821 20.1616V20.6094H14.3147V20.1616L16.1961 18.2213C16.4051 17.9974 16.4051 17.9228 16.4051 17.6243V6.20639L11.1095 20.5347H10.4127L4.28091 6.20639V15.8333C4.21123 16.2064 4.35059 16.6542 4.62931 16.9527L7.06808 20.1616V20.5347H0.100159V20.1616L2.53893 16.9527C2.81765 16.6542 2.95701 16.2064 2.88733 15.8333V4.71385Z" fill="black"/>
</svg>
