<svg width="20" height="21" viewBox="0 0 20 21" fill="none" xmlns="http://www.w3.org/2000/svg">
<path d="M5.25301 17.1522L5.97701 17.5752C7.19795 18.2873 8.5866 18.6611 10 18.6582C11.5823 18.6582 13.129 18.189 14.4446 17.31C15.7602 16.4309 16.7855 15.1815 17.3911 13.7197C17.9966 12.2579 18.155 10.6493 17.8463 9.0975C17.5376 7.54563 16.7757 6.12017 15.6569 5.00135C14.538 3.88253 13.1126 3.1206 11.5607 2.81192C10.0089 2.50324 8.4004 2.66167 6.93855 3.26717C5.47674 3.87267 4.22731 4.89805 3.34826 6.21364C2.46921 7.52923 2.00001 9.076 2.00001 10.6582C2.00001 12.0942 2.37701 13.4712 3.08401 14.6822L3.50601 15.4062L2.85301 17.8072L5.25301 17.1522ZM0.00401334 20.6582L1.35601 15.6902C0.465153 14.1631 -0.00288661 12.4262 1.33948e-05 10.6582C1.33948e-05 5.1352 4.47701 0.658203 10 0.658203C15.523 0.658203 20 5.1352 20 10.6582C20 16.1812 15.523 20.6582 10 20.6582C8.2328 20.6611 6.49667 20.1934 4.97001 19.3032L0.00401334 20.6582ZM6.39101 5.9662C6.52501 5.9562 6.66001 5.9562 6.79401 5.9622C6.84801 5.9662 6.90201 5.9722 6.95601 5.9782C7.11501 5.9962 7.29001 6.0932 7.34901 6.2272C7.64701 6.9032 7.93701 7.5842 8.217 8.2672C8.279 8.4192 8.242 8.6142 8.124 8.8042C8.0429 8.9327 7.95507 9.0568 7.86101 9.1762C7.74801 9.3212 7.50501 9.5872 7.50501 9.5872C7.50501 9.5872 7.40601 9.7052 7.44401 9.8522C7.45801 9.9082 7.50401 9.9892 7.54601 10.0572L7.60501 10.1522C7.86101 10.5792 8.205 11.0122 8.625 11.4202C8.745 11.5362 8.862 11.6552 8.988 11.7662C9.456 12.1792 9.986 12.5162 10.558 12.7662L10.563 12.7682C10.648 12.8052 10.691 12.8252 10.815 12.8782C10.877 12.9042 10.941 12.9272 11.006 12.9442C11.0732 12.9613 11.1439 12.9581 11.2093 12.9349C11.2746 12.9118 11.3316 12.8698 11.373 12.8142C12.097 11.9372 12.163 11.8802 12.169 11.8802V11.8822C12.2193 11.8353 12.2791 11.7997 12.3443 11.7778C12.4095 11.7559 12.4786 11.7482 12.547 11.7552C12.607 11.7592 12.668 11.7702 12.724 11.7952C13.255 12.0382 14.124 12.4172 14.124 12.4172L14.706 12.6782C14.804 12.7252 14.893 12.8362 14.896 12.9432C14.9 13.0102 14.906 13.1182 14.883 13.3162C14.851 13.5752 14.773 13.8862 14.695 14.0492C14.6416 14.1604 14.5707 14.2624 14.485 14.3512C14.3841 14.4572 14.2736 14.5536 14.155 14.6392C14.114 14.6701 14.0723 14.7001 14.03 14.7292C13.9056 14.8081 13.7778 14.8815 13.647 14.9492C13.3895 15.086 13.1052 15.1645 12.814 15.1792C12.629 15.1892 12.444 15.2032 12.258 15.1932C12.25 15.1932 11.69 15.1062 11.69 15.1062C10.2683 14.7322 8.9534 14.0317 7.85001 13.0602C7.62401 12.8612 7.41501 12.6472 7.20101 12.4342C6.31101 11.5492 5.63901 10.5942 5.23101 9.6922C5.02218 9.2495 4.90938 8.7676 4.90001 8.2782C4.89589 7.67105 5.09436 7.07987 5.46401 6.5982C5.53701 6.5042 5.60601 6.4062 5.72501 6.2932C5.85201 6.1732 5.93201 6.1092 6.01901 6.0652C6.13469 6.00723 6.26088 5.97322 6.39001 5.9652L6.39101 5.9662Z" fill="black"/>
</svg>
